<svg xmlns="http://www.w3.org/2000/svg" width="24" height="23" viewBox="0 0 24 23">
  <g id="Group_2561" data-name="Group 2561" transform="translate(-1507 -1497)">
    <rect id="Rectangle_471" data-name="Rectangle 471" width="24" height="23" transform="translate(1507 1497)" fill="none" opacity="0"/>
    <path id="Icon_material-date-range" data-name="Icon material-date-range" d="M9.833,11H8.056v1.778H9.833Zm3.556,0H11.611v1.778h1.778Zm3.556,0H15.167v1.778h1.778Zm1.778-6.222h-.889V3H16.056V4.778H8.944V3H7.167V4.778H6.278A1.77,1.77,0,0,0,4.509,6.556L4.5,19a1.777,1.777,0,0,0,1.778,1.778H18.722A1.783,1.783,0,0,0,20.5,19V6.556A1.783,1.783,0,0,0,18.722,4.778Zm0,14.222H6.278V9.222H18.722Z" transform="translate(1506.5 1497)" fill="#e0d177"/>
  </g>
</svg>
