<svg xmlns="http://www.w3.org/2000/svg" width="24" height="24" viewBox="0 0 24 24"><defs><style>.a,.d{fill:none;}.a{stroke:#592d8d;}.b{fill:#592d8d;}.c{stroke:none;}</style></defs><g transform="translate(7747 7040)"><g class="a" transform="translate(-7747 -7040)"><circle class="c" cx="12" cy="12" r="12"/><circle class="d" cx="12" cy="12" r="11.5"/></g><path class="b" d="M13.6,9.893,10.538,8.581a.656.656,0,0,0-.766.189L8.416,10.427A10.135,10.135,0,0,1,3.571,5.581L5.228,4.225a.655.655,0,0,0,.189-.766L4.1.4a.661.661,0,0,0-.752-.38L.509.673A.656.656,0,0,0,0,1.313,12.686,12.686,0,0,0,12.688,14a.656.656,0,0,0,.64-.509l.656-2.844a.664.664,0,0,0-.383-.755Z" transform="translate(-7741.316 -7036)"/></g></svg>