<svg xmlns="http://www.w3.org/2000/svg" width="24" height="24" viewBox="0 0 24 24"><defs><style>.a,.d{fill:none;}.a{stroke:#592d8d;}.b{fill:#592d8d;}.c{stroke:none;}</style></defs><g transform="translate(7701 7040)"><g class="a" transform="translate(-7701 -7040)"><circle class="c" cx="12" cy="12" r="12"/><circle class="d" cx="12" cy="12" r="11.5"/></g><path class="b" d="M15.923,7.392,8.829.3A1.017,1.017,0,0,0,7.392.3L.3,7.392a1.017,1.017,0,0,0,0,1.437l7.094,7.094a1.016,1.016,0,0,0,1.437,0l7.094-7.094a1.016,1.016,0,0,0,0-1.437Zm-3.2.4-2.668,2.463a.254.254,0,0,1-.425-.186v-1.7H6.589v2.028a.253.253,0,0,1-.253.253H5.322a.253.253,0,0,1-.253-.253V7.857A1.014,1.014,0,0,1,6.083,6.843H9.631v-1.7a.254.254,0,0,1,.425-.186l2.668,2.463a.254.254,0,0,1,0,.373Z" transform="translate(-7696.723 -7036.415)"/></g></svg>