<svg xmlns="http://www.w3.org/2000/svg" width="49.686" height="78.044" viewBox="0 0 49.686 78.044"><defs><style>.a{fill:none;stroke:#cdbede;stroke-linecap:round;stroke-miterlimit:10;stroke-width:3px;}.b{fill:#cdbede;}</style></defs><g transform="translate(-165.503 -289.483)"><g transform="translate(167.623 290.984)"><path class="a" d="M55.2,53.551a10.52,10.52,0,0,1,14.435,0" transform="translate(-39.734 -26.339)"/><path class="a" d="M45.1,42.344A22.546,22.546,0,0,1,60.8,36a21.926,21.926,0,0,1,14.752,6.345" transform="translate(-37.645 -23.301)"/><path class="a" d="M35.7,29.832A32.3,32.3,0,0,1,59.255,20a31.872,31.872,0,0,1,21.89,9.835" transform="translate(-35.7 -19.989)"/></g><g transform="translate(166.764 326.305)"><path class="b" d="M81.555,103.367,59.586,65.3a1.632,1.632,0,0,0-2.776,0L34.841,103.367a1.583,1.583,0,0,0,1.348,2.379H80.128A1.6,1.6,0,0,0,81.555,103.367ZM56.969,74.736a1.19,1.19,0,1,1,2.379,0V92.9a1.19,1.19,0,1,1-2.379,0Zm1.19,26.252a2.386,2.386,0,0,1-2.379-2.379,2.379,2.379,0,1,1,2.379,2.379Z" transform="translate(-34.617 -64.525)"/><path class="b" d="M64.3,107.5h0Z" transform="translate(-40.758 -73.416)"/></g></g></svg>