<svg xmlns="http://www.w3.org/2000/svg" width="37" height="38" viewBox="0 0 37 38">
  <g id="Group_2549" data-name="Group 2549" transform="translate(1609 -968)">
    <rect id="Rectangle_462" data-name="Rectangle 462" width="37" height="38" transform="translate(-1609 968)" fill="#fff" opacity="0"/>
    <path id="Icon_map-police" data-name="Icon map-police" d="M20.438,14.68c0,2.406-1.992,2.406-3.066,2.406H16.034V12.537h1.682c.941,0,2.722,0,2.722,2.143Zm10.283-2.4a15.165,15.165,0,0,1,2.159-6.756l-4.8-4.8a8.638,8.638,0,0,1-5.2,2.156,8.949,8.949,0,0,1-5.091-1.024,9.578,9.578,0,0,1-5.1,1.024A9.244,9.244,0,0,1,7.741.919l-4.813,4.8A14.886,14.886,0,0,1,4.9,12.278a11.841,11.841,0,0,1-.911,4.369c-.352,1.037-.619,1.937-.8,2.689a13.479,13.479,0,0,0-.308,1.808,8.839,8.839,0,0,0,1.681,5.393A19.691,19.691,0,0,0,8.987,30.4a28.659,28.659,0,0,0,5.2,2.2l1.009.469c.317.153.657.3,1.012.462a4.258,4.258,0,0,1,1.586,1.469,4.621,4.621,0,0,1,1.626-1.469q.657-.282,1.3-.591c.35-.154.611-.269.762-.34q.5-.24,1.012-.439c.416-.164.93-.364,1.544-.586a12.849,12.849,0,0,0,2.6-1.176A22.531,22.531,0,0,0,31,26.591a8.716,8.716,0,0,0,1.737-5.447,19.553,19.553,0,0,0-1.154-4.351,11.735,11.735,0,0,1-.866-4.514ZM21.9,18.857a6.586,6.586,0,0,1-3.524.746H16.13V25.75H12.752V9.981h4.8c2.229,0,4.092.144,5.387,1.721a4.6,4.6,0,0,1,.944,2.956,4.936,4.936,0,0,1-1.978,4.2Z" transform="translate(-1608.257 969.75)" fill="#592d8d" stroke="#592d8d" stroke-width="1"/>
  </g>
</svg>
