<svg xmlns="http://www.w3.org/2000/svg" width="24" height="23" viewBox="0 0 24 23">
  <g id="Group_2558" data-name="Group 2558" transform="translate(-1507 -1402)">
    <rect id="Rectangle_468" data-name="Rectangle 468" width="24" height="23" transform="translate(1507 1402)" fill="none" opacity="0"/>
    <path id="Icon_map-police" data-name="Icon map-police" d="M11.961,8.813c0,1.4-1.03,1.4-1.586,1.4H9.683V7.57h.87c.487,0,1.408,0,1.408,1.242ZM17.28,7.42A9.551,9.551,0,0,1,18.4,3.5L15.914.72a4.231,4.231,0,0,1-2.689,1.25,4.212,4.212,0,0,1-2.633-.594,4.5,4.5,0,0,1-2.638.594A4.5,4.5,0,0,1,5.394.835L2.905,3.618a9.407,9.407,0,0,1,1.02,3.8,7.592,7.592,0,0,1-.471,2.533c-.182.6-.32,1.123-.414,1.559a8.683,8.683,0,0,0-.159,1.048,5.562,5.562,0,0,0,.869,3.126,10.664,10.664,0,0,0,2.288,2.242A13.99,13.99,0,0,0,8.727,19.2l.522.272c.164.089.34.174.523.268a2.331,2.331,0,0,1,.82.852,2.516,2.516,0,0,1,.841-.852q.34-.163.673-.343c.181-.089.316-.156.394-.2q.257-.139.523-.255c.215-.095.481-.211.8-.34a6.334,6.334,0,0,0,1.343-.682,12.2,12.2,0,0,0,2.26-2.211,5.476,5.476,0,0,0,.9-3.158,12.456,12.456,0,0,0-.6-2.522A7.536,7.536,0,0,1,17.28,7.42Zm-4.563,3.814a3.1,3.1,0,0,1-1.822.432H9.733v3.564H7.986V6.088h2.48c1.153,0,2.116.083,2.786,1A2.9,2.9,0,0,1,13.74,8.8a3,3,0,0,1-1.023,2.434Z" transform="translate(1508.119 1403.28)" fill="#3fcb67"/>
  </g>
</svg>
