<svg xmlns="http://www.w3.org/2000/svg" xmlns:xlink="http://www.w3.org/1999/xlink" width="48" height="49" viewBox="0 0 48 49">
  <defs>
    <clipPath id="clip-Artboard_1">
      <rect width="48" height="49"/>
    </clipPath>
  </defs>
  <g id="Artboard_1" data-name="Artboard – 1" clip-path="url(#clip-Artboard_1)">
    <rect width="48" height="49" fill="rgba(255,255,255,0)"/>
    <g id="Group_11129" data-name="Group 11129" transform="translate(19787 14453)">
      <g id="Group_11116" data-name="Group 11116" transform="translate(-19779.385 -14448.461)">
        <rect id="Rectangle_2123" data-name="Rectangle 2123" width="16.008" height="14" transform="translate(7.938 12.047)" fill="rgba(0,0,0,0.97)"/>
        <path id="Path_1890" data-name="Path 1890" d="M43.407,9.135h-.085A19.69,19.69,0,0,1,28.936,2.855a.923.923,0,0,0-1.273,0A19.69,19.69,0,0,1,13.276,9.135h-.085a.9.9,0,0,0-.891.891V19.66A23.744,23.744,0,0,0,22.825,39.394l4.965,3.353a.91.91,0,0,0,.509.17.741.741,0,0,0,.509-.17l4.965-3.353A23.744,23.744,0,0,0,44.3,19.66V9.984A.919.919,0,0,0,43.407,9.135Zm-8.021,10.61L27.96,27.808a1.991,1.991,0,0,1-1.485.637,2.161,2.161,0,0,1-1.485-.637l-3.735-4.032a2.043,2.043,0,0,1,3.013-2.758l2.249,2.419,5.941-6.408a2.025,2.025,0,0,1,2.886-.127A2.048,2.048,0,0,1,35.386,19.745Z" transform="translate(-12.3 -2.6)" fill="#f5de5b" stroke="rgba(245,222,91,0.97)" stroke-width="2"/>
      </g>
      <path id="Union_1" data-name="Union 1" d="M15.49,40.149,10.525,36.8A23.744,23.744,0,0,1,0,17.061V7.427a.9.9,0,0,1,.891-.892H.976A19.691,19.691,0,0,0,15.364.255a.922.922,0,0,1,1.273,0A19.691,19.691,0,0,0,31.024,6.536h.086a.919.919,0,0,1,.891.85v9.676A23.745,23.745,0,0,1,21.474,36.8l-4.966,3.353a.742.742,0,0,1-.509.17A.917.917,0,0,1,15.49,40.149Z" transform="translate(-19779.385 -14448.598)" fill="none" stroke="rgba(224,197,40,0.97)" stroke-width="3"/>
    </g>
  </g>
</svg>
