<svg xmlns="http://www.w3.org/2000/svg" width="45" height="45" viewBox="0 0 45 45">
  <g id="Group_2894" data-name="Group 2894" transform="translate(-0.275 0.078)">
    <rect id="Rectangle_2123" data-name="Rectangle 2123" width="25" height="25" transform="translate(10.275 9.922)" fill="#fff"/>
    <rect id="Rectangle_2122" data-name="Rectangle 2122" width="45" height="45" transform="translate(0.275 -0.078)" fill="#fff" opacity="0"/>
    <path id="Path_1890" data-name="Path 1890" d="M45.844,9.647h-.092A21.232,21.232,0,0,1,30.239,2.875a1,1,0,0,0-1.373,0A21.232,21.232,0,0,1,13.353,9.647h-.092a.967.967,0,0,0-.961.961V21a25.6,25.6,0,0,0,11.349,21.28L29,45.892a.981.981,0,0,0,.549.183.8.8,0,0,0,.549-.183l5.354-3.615A25.6,25.6,0,0,0,46.805,21V10.563A.991.991,0,0,0,45.844,9.647ZM37.195,21.088l-8.008,8.695a2.147,2.147,0,0,1-1.6.686,2.33,2.33,0,0,1-1.6-.686l-4.027-4.347a2.2,2.2,0,0,1,3.249-2.975l2.425,2.608,6.407-6.91a2.184,2.184,0,0,1,3.112-.137A2.209,2.209,0,0,1,37.195,21.088Z" transform="translate(-7.337 -1.245)" fill="#f5de5b"/>
  </g>
</svg>
