<svg xmlns="http://www.w3.org/2000/svg" xmlns:xlink="http://www.w3.org/1999/xlink" width="47" height="47" viewBox="0 0 47 47"><defs><style>.a{fill:url(#a);}.b{fill:#fff;}</style><linearGradient id="a" x1="-0.011" y1="-0.011" x2="0.97" y2="0.97" gradientUnits="objectBoundingBox"><stop offset="0.001" stop-color="#fbe18a"/><stop offset="0.209" stop-color="#fcbb45"/><stop offset="0.376" stop-color="#f75274"/><stop offset="0.524" stop-color="#d53692"/><stop offset="0.739" stop-color="#8f39ce"/><stop offset="1" stop-color="#5b4fe9"/></linearGradient></defs><g transform="translate(0.287 -0.412)"><rect class="a" width="47" height="47" rx="11" transform="translate(-0.287 0.412)"/><g transform="translate(9.878 9.926)"><path class="b" d="M384.7,162.048a1.594,1.594,0,1,0,1.594,1.594A1.593,1.593,0,0,0,384.7,162.048Z" transform="translate(-363.911 -157.195)"/><path class="b" d="M380.438,163.618a6.694,6.694,0,1,0,6.694,6.7A6.7,6.7,0,0,0,380.438,163.618Zm0,10.984a4.289,4.289,0,1,1,4.287-4.289A4.293,4.293,0,0,1,380.438,174.6Z" transform="translate(-366.734 -156.721)"/><path class="b" d="M387.376,185.5H376.524a8.175,8.175,0,0,1-8.166-8.166V166.483a8.174,8.174,0,0,1,8.166-8.164h10.852a8.175,8.175,0,0,1,8.166,8.164v10.853A8.176,8.176,0,0,1,387.376,185.5Zm-10.852-24.626a5.614,5.614,0,0,0-5.608,5.607v10.853a5.615,5.615,0,0,0,5.608,5.608h10.852a5.615,5.615,0,0,0,5.608-5.608V166.483a5.614,5.614,0,0,0-5.608-5.607Z" transform="translate(-368.358 -158.319)"/></g></g></svg>