<svg xmlns="http://www.w3.org/2000/svg" width="46.94" height="46.94" viewBox="0 0 46.94 46.94"><defs><style>.a{fill:#00d95f;}.b,.c{fill:#fff;}.c{fill-rule:evenodd;}</style></defs><rect class="a" width="46.941" height="46.94" rx="11" transform="translate(0 0)"/><g transform="translate(10.944 10.028)"><path class="b" d="M369.177,404.949l1.933-7.212a13.351,13.351,0,1,1,5.317,5.27Zm7.61-4.644.456.272a10.832,10.832,0,1,0-3.707-3.673l.28.459-1.079,4.027Z" transform="translate(-369.177 -377.988)"/><path class="c" d="M386.057,391.481a2.241,2.241,0,0,0-1.908-.429c-.495.2-.811.979-1.132,1.374a.475.475,0,0,1-.614.133,8.635,8.635,0,0,1-4.311-3.692.53.53,0,0,1,.066-.722,2.9,2.9,0,0,0,.784-1.27,2.781,2.781,0,0,0-.35-1.506,3.566,3.566,0,0,0-1.112-1.674,1.52,1.52,0,0,0-1.653.246,3.357,3.357,0,0,0-1.164,2.659,3.829,3.829,0,0,0,.105.843,6.958,6.958,0,0,0,.81,1.865,14.457,14.457,0,0,0,.845,1.285,13.056,13.056,0,0,0,3.665,3.4,11.082,11.082,0,0,0,2.286,1.087,5.084,5.084,0,0,0,2.66.42,3.218,3.218,0,0,0,2.412-1.795,1.556,1.556,0,0,0,.112-.916C387.421,392.161,386.567,391.787,386.057,391.481Z" transform="translate(-367.523 -376.313)"/></g></svg>