<svg id="Group_11178" data-name="Group 11178" xmlns="http://www.w3.org/2000/svg" width="46.94" height="46.94" viewBox="0 0 46.94 46.94">
  <rect id="Rectangle_2219" data-name="Rectangle 2219" width="46.94" height="46.94" rx="11" transform="translate(0 0)" fill="#3cf"/>
  <g id="Group_11168" data-name="Group 11168" transform="translate(11.097 13.192)">
    <path id="Path_2526" data-name="Path 2526" d="M394.477,218.22a10.452,10.452,0,0,1-2.557.73c.411-.069,1.015-.813,1.257-1.115a4.673,4.673,0,0,0,.849-1.548c.022-.044.039-.1-.005-.133a.145.145,0,0,0-.135.012,13.031,13.031,0,0,1-3.033,1.16.2.2,0,0,1-.208-.056,2.617,2.617,0,0,0-.266-.271,5.361,5.361,0,0,0-1.468-.9,5.109,5.109,0,0,0-2.253-.363,5.37,5.37,0,0,0-2.137.6,5.5,5.5,0,0,0-1.723,1.408,5.28,5.28,0,0,0-1.03,2.062,5.551,5.551,0,0,0-.055,2.177c.016.121.005.138-.105.121a16.193,16.193,0,0,1-10.417-5.3c-.122-.139-.187-.139-.288.01a5.283,5.283,0,0,0,.9,6.242c.2.193.414.387.64.564a5.319,5.319,0,0,1-2.011-.564c-.121-.077-.182-.033-.193.105a3.125,3.125,0,0,0,.033.6,5.34,5.34,0,0,0,3.293,4.259,3.051,3.051,0,0,0,.668.2,5.962,5.962,0,0,1-1.972.061c-.143-.027-.2.044-.143.182a5.543,5.543,0,0,0,4.143,3.469c.187.034.375.034.564.077-.012.017-.023.017-.034.034-.465.709-2.077,1.238-2.828,1.5a10.141,10.141,0,0,1-4.3.551c-.23-.034-.28-.031-.342,0s-.008.094.066.154c.293.194.591.366.9.531a14.211,14.211,0,0,0,2.871,1.149,15.3,15.3,0,0,0,14.852-3.472c3.044-3.025,4.112-7.195,4.112-11.37,0-.164.193-.254.307-.34a10.087,10.087,0,0,0,2.021-2.1.64.64,0,0,0,.134-.4v-.022C394.581,218.153,394.58,218.173,394.477,218.22Z" transform="translate(-369.295 -215.726)" fill="#fff"/>
  </g>
</svg>
