<svg xmlns="http://www.w3.org/2000/svg" width="46.942" height="46.94" viewBox="0 0 46.942 46.94"><defs><style>.a{fill:#337fff;}.b{fill:#fff;}</style></defs><path class="a" d="M395.828,142.735H387.87l-3.631-1.2-3.6,1.2H372.65a11.881,11.881,0,0,1-11.882-11.881V107.677A11.882,11.882,0,0,1,372.65,95.795h23.178a11.882,11.882,0,0,1,11.882,11.882v23.178A11.881,11.881,0,0,1,395.828,142.735Z" transform="translate(-360.768 -95.795)"/><path class="b" d="M377.382,111.993V117.1H371.5v6.7h5.887v16.768h7.244V123.8h5.4l1.028-6.7h-6.431v-4.35c0-1.833.9-3.621,3.778-3.621h2.925v-5.7a35.659,35.659,0,0,0-5.191-.453C380.843,102.973,377.382,106.183,377.382,111.993Z" transform="translate(-357.533 -93.63)"/></svg>